<svg class="icon" viewBox="0 0 1152 1024" xmlns="http://www.w3.org/2000/svg" width="500" height="500"><path d="M464 474.4c63.6-30.4 96.8-76.4 96.8-148 0-141.2-105.2-175.6-226.6-175.6H0v708.8h343.6c128.8 0 249.8-61.8 249.8-205.8 0-89-42.2-154.8-129.4-179.4zM155.8 271.8H302c56.2 0 106.8 15.8 106.8 81 0 60.2-39.4 84.4-95 84.4h-158V271.8zm166.6 467.4H155.8V544h169.8c68.6 0 112 28.6 112 101.2 0 71.6-51.8 94-115.2 94zm717-481.4H752V188h287.4v69.8zM1152 610.4c0-151.8-88.8-278.4-249.8-278.4-156.4 0-262.6 117.6-262.6 271.6 0 159.8 100.6 269.4 262.6 269.4 122.6 0 202-55.2 240.2-172.6H1018c-13.4 43.8-68.6 67-111.4 67-82.6 0-126-48.4-126-130.6h370.2c.6-8.4 1.2-17.4 1.2-26.4zM780.8 548c4.6-67.4 49.4-109.6 117-109.6 70.8 0 106.4 41.6 112.4 109.6H780.8z"/></svg>