<svg class="icon" viewBox="0 0 1069 1024" xmlns="http://www.w3.org/2000/svg" width="500" height="500"><path d="M868.93 171.112H697.817l77.535-77.535c13.369-13.368 13.369-32.084 0-45.452s-32.083-13.368-45.451 0L598.893 179.133H470.559L339.55 48.125c-10.695-13.368-26.736-16.041-42.778-8.02-2.674 0-2.674 2.673-5.347 5.347-13.369 13.368-13.369 32.083 0 45.451l80.208 80.21H200.522c-93.577 0-171.112 77.535-171.112 171.112v425.107c0 90.903 77.535 168.438 171.112 168.438h26.736c0 32.084 26.737 56.146 56.147 56.146s56.146-26.736 56.146-56.146h395.697c2.674 32.084 29.41 56.146 61.494 53.473 29.41-2.674 50.798-24.063 53.472-53.473h21.39c93.576 0 171.111-77.535 171.111-171.112V339.551c-2.673-93.577-80.208-168.439-173.785-168.439zM863.582 831.5H211.217c-34.757 0-61.494-29.41-64.167-64.167l-2.674-433.128c0-34.758 29.41-64.167 64.167-64.167H860.91c34.757 0 61.493 29.41 64.167 64.167l2.673 433.128c-2.673 37.43-29.41 64.167-64.167 64.167z"/><path d="M422.433 417.086l16.042 80.209-213.89 40.104-16.042-80.208 213.89-40.105zm205.87 80.209l16.042-80.209 213.89 40.105-16.042 80.208-213.89-40.104zm42.778 168.439c0 2.673 0 8.02-2.674 10.694-13.368 29.41-42.778 48.126-77.535 50.8-21.389 0-42.778-10.695-56.146-26.737-16.042 16.042-34.757 26.736-56.146 26.736-32.084-2.673-61.494-21.389-77.536-50.799 0-2.673-2.673-5.347-2.673-10.694 0-10.695 8.02-18.716 18.715-21.39h2.674c8.02 0 13.368 2.674 16.042 10.695 0 0 21.389 29.41 40.104 29.41 37.43 0 37.43-32.083 58.82-56.146 24.063 26.736 24.063 56.146 58.82 56.146 24.062 0 40.104-29.41 40.104-29.41 2.674-5.347 10.695-10.694 16.042-10.694 10.694-2.674 18.715 5.347 21.389 16.041v5.348z"/></svg>