<svg class="icon" viewBox="0 0 1073 1024" xmlns="http://www.w3.org/2000/svg" width="500" height="500"><path d="M410.665 49.79c108.643-20.313 224.414 2.546 317.783 61.449 75.755 47.551 136.848 118.316 172.23 200.536 45.005 102.993 48.62 223.243 10.488 328.933-32.175 90.57-95 169.685-175.336 222.224-73.922 48.874-162.812 74.737-251.396 73.108-96.22-.56-191.678-34.008-267.636-92.86-81.202-62.315-139.8-153.242-162.506-253.077-22.554-95.762-11.658-198.652 29.63-287.848C143.232 171.62 269.185 74.025 410.665 49.79m-164.34 302.917c-62.772 42.256-88.889 129.415-59.717 199.214 19.193 49.077 63.027 87.565 114.192 100.242 58.751 14.153 122.899-1.833 169.736-39.66 67.762-53.353 105.18-132.977 150.695-204.049 21.179 38.743 43.579 76.876 64.707 115.67-22.298-15.58-43.783-32.176-65.674-48.213-16.75 11.608-34.212 22.197-50.096 35.078 62.162 46.48 124.934 92.147 187.146 138.578 12.627 10.894 35.74 9.774 44.242-5.754 5.6-10.385 4.989-23.826-1.273-33.804-51.47-91.231-102.584-182.667-153.852-274.05-8.756-17.667-36.502-19.347-47.091-2.649-36.25 56.104-66.185 116.23-105.64 170.245-25.76 34.925-56.613 68.933-97.9 85.122-34.467 13.237-75.603 14.154-108.237-4.683-33.702-18.786-56.51-56.358-55.492-95.151.102-38.388 23.165-75.094 56.816-93.014 33.092-18.328 73.77-16.495 108.643-4.48 37.674 13.033 66.54 41.695 97.647 65.368 16.443-11.505 34.212-21.483 49.433-34.415-23.774-21.382-49.84-40.932-75.652-60.074-63.69-45.26-156.753-56.51-222.632-9.52z"/></svg>