<svg class="icon" viewBox="0 0 1024 1024" xmlns="http://www.w3.org/2000/svg" width="500" height="500"><path d="M88 72.9h848v95.5H88z"/><path d="M88 72.9h848v95.5H88zm774.3 568.6V268H161.7v373.5h700.6zM263.4 363.4h498.4v182.5H263.4V363.4z"/><path d="M862.3 641.5V268H161.7v373.5h700.6zM263.4 363.4h498.4v182.5H263.4V363.4zm447.4 493.3c30.5-46.7 59.3-100.8 85.9-162.2l-102-37.2c-26.5 72.8-57.4 139.4-92.5 199.4H424.9c-29.4-77.8-62.6-144.3-99.8-199.4l-93.8 37.2c38.6 58 69.9 111.9 93.8 162.2H64v94.5h896v-94.5H710.8z"/><path d="M710.8 856.7c30.5-46.7 59.3-100.8 85.9-162.2l-102-37.2c-26.5 72.8-57.4 139.4-92.5 199.4H424.9c-29.4-77.8-62.6-144.3-99.8-199.4l-93.8 37.2c38.6 58 69.9 111.9 93.8 162.2H64v94.5h896v-94.5H710.8z"/></svg>