<svg class="icon" viewBox="0 0 1024 1024" xmlns="http://www.w3.org/2000/svg" width="500" height="500"><path d="M512 96C282.592 96 96 282.592 96 512s186.592 416 416 416 416-186.592 416-416S741.408 96 512 96zm275.104 191.808a353.216 353.216 0 0180.192 221.376c-11.712-2.496-129.184-26.272-247.392-11.392-2.496-6.08-4.992-12.192-7.616-18.304A1086.4 1086.4 0 00588.704 428C720 374.304 779.616 297.984 787.104 287.808zM512 157.184c90.304 0 172.8 33.92 235.52 89.504-6.4 9.12-59.904 81.024-186.24 128.416a1880.8 1880.8 0 00-132.576-208 354.47 354.47 0 0183.296-9.92zM360.896 191.04c9.408 12.8 72.896 100.896 131.712 205.504C326.4 440.64 180 440.032 164.096 439.84a356.8 356.8 0 01196.8-248.8zM156.704 512.512c0-3.616.096-7.296.192-10.912 15.52.32 187.712 2.496 365.216-50.592 10.176 19.904 19.904 40.096 28.8 60.288-4.704 1.28-9.408 2.72-14.016 4.192C353.6 574.912 256.096 736.384 248 750.112a354.112 354.112 0 01-91.296-237.6zM512 867.808c-82.208 0-157.888-28-218.112-75.008 6.4-13.12 78.304-152 278.72-221.888l2.304-.8c49.888 129.6 70.496 238.304 75.776 269.504A350.464 350.464 0 01512 867.776zm198.496-60.704c-3.584-21.6-22.496-125.6-68.992-253.312 111.392-17.792 209.184 11.424 221.28 15.2a355.52 355.52 0 01-152.288 238.08z"/></svg>