<svg class="icon" viewBox="0 0 1024 1024" xmlns="http://www.w3.org/2000/svg" width="500" height="500"><path d="M375.467 512a136.533 136.533 0 10273.066 0 136.533 136.533 0 10-273.066 0z"/><path d="M682.633 102.4H341.299C209.58 102.4 102.4 209.613 102.4 341.367v341.334c0 131.72 107.213 238.899 238.967 238.899h341.334c131.72 0 238.899-107.213 238.899-238.967V341.299c0-131.72-107.213-238.899-238.967-238.899zM512 716.8c-112.947 0-204.8-91.853-204.8-204.8S399.053 307.2 512 307.2 716.8 399.053 716.8 512 624.947 716.8 512 716.8zm238.933-409.6a34.133 34.133 0 110-68.267 34.133 34.133 0 010 68.267z"/></svg>