<svg class="icon" viewBox="0 0 1024 1024" xmlns="http://www.w3.org/2000/svg" width="500" height="500"><path d="M837.766 364.816c-50.828-54.107-111.313-91.2-187.245-98.706-7.324-.728-18.983-5.028-20.404-9.983-6.595-23.064-12.826-46.784-14.283-70.54-1.64-26.6 20.368-44.744 46.748-39.425 16.724 3.389 32.392 12.389 48.277 19.457 10.968 4.883 20.988 12.389 32.32 15.923 27.472 8.49 53.378-7.725 58.589-35.78 4.408-23.684-4.41-42.922-22.154-58.153-28.857-24.776-62.998-37.748-100.054-44.743-70.977-13.409-152.74 38.768-169.648 108.908-8.453 35.088-1.712 68.755 10.457 101.51 6.486 17.527 1.968 24.595-16.032 30.862-118.308 41.32-182.508 155.436-154.49 276.075 16.506 71.123 59.465 121.733 131.862 138.604 74.44 17.344 136.818-7.943 182.62-69.192 37.056-49.516 39.133-105.519 23.976-163.197-7.943-30.242-17.198-60.156-26.672-92.948 5.575 1.094 7.397 1.203 9.037 1.786 125.486 45.436 188.959 183.858 125.232 318.813-63.91 135.325-211.911 183.348-344.362 155.072-166.26-35.526-278.955-210.93-245.286-377.62 23.61-116.924 91.564-198.32 200.253-246.342 8.27-3.68 16.797-7.251 24.266-12.28 15.595-10.53 24.886-25.687 23.064-44.633-1.93-19.93-11.878-37.93-32.136-42.011-16.215-3.28-36.036-3.68-50.72 2.696-166.223 72.107-260.848 197.994-272.869 379.884-18.655 282.566 246.128 504.023 521.296 440.882 171.833-39.424 293.167-182.18 303.986-330.804 7.105-97.248-18.619-182.763-85.625-254.11zm-309.05 234.651c-39.06 3.352-71.233-23.83-77.609-65.548-11.113-72.545 19.894-127.162 85.48-151.94 12.606-4.774 18.18-2.915 21.934 10.858 8.745 32.1 19.493 63.617 28.675 95.609 3.133 10.93 3.972 22.554 5.83 33.885-.219 42.922-25.578 73.82-64.31 77.136z"/></svg>