<svg class="icon" viewBox="0 0 1024 1024" xmlns="http://www.w3.org/2000/svg" width="500" height="500"><path d="M526.721 56.899l-.722-.542-8.31.18-2.167-.18c-4.154-.361-8.309 0-12.463.18-1.987.181-3.794.181-5.78.362l-5.6.18C247.285 67.918 56.357 266.974 56.357 511.73c0 251.258 204.475 455.733 455.733 455.733 1.445 0 2.71 0 4.155-.18l2.167-.18 3.613.18 3.432-.18.18-.182c244.034-7.405 442.006-210.977 442.006-455.01 0-243.672-197.61-447.063-440.922-455.011zm110.366 598.793c-24.024 82.007-67.917 156.97-127.164 217.3-57.441-60.873-99.89-135.654-123.372-217.3h250.536zm-346.993-79.478H141.615c-3.793-21.675-5.78-43.351-5.78-64.304 0-30.527 3.974-61.776 12.102-93.026H294.25c-5.42 33.598-7.948 63.944-7.948 93.026-.18 20.05 1.084 41.003 3.793 64.304zM394.86 339.588c24.566-70.988 63.402-134.39 115.243-189.121 52.022 53.106 92.484 118.133 117.772 189.121H394.86zm316.647 0c-20.953-68.64-53.647-132.403-97.54-189.482 98.986 27.998 183.882 97.36 231.75 189.482h-134.21zm-53.105 171.961c0 19.69-1.445 40.281-4.697 64.667h-283.41c-3.071-24.205-4.516-44.797-4.516-64.305 0-30.888 2.71-62.138 8.309-93.026h275.824c5.6 31.07 8.49 62.318 8.49 92.664zm-480.119-171.96c47.326-91.039 131.139-159.86 228.86-188.4-42.629 57.08-74.42 120.301-94.831 188.4H178.283zm126.081 316.104c19.328 77.853 54.55 152.273 102.96 217.3-109.463-31.791-198.514-111.269-242.407-217.3h139.447zm554.9 0c-44.616 107.476-135.112 187.676-246.2 218.564 50.034-64.846 86.522-139.989 106.391-218.383h139.81zM729.751 419.065h146.312c7.948 31.25 12.102 62.318 12.102 93.025 0 20.954-1.987 42.63-5.78 64.305h-148.66c2.71-23.663 3.974-44.796 3.974-64.666.18-28.901-2.529-59.247-7.948-92.664z"/></svg>