<svg class="icon" viewBox="0 0 1024 1024" xmlns="http://www.w3.org/2000/svg" width="500" height="500"><path d="M203.667 425.126c-4.827 11.263 1.609 19.305 0 62.742 0 11.263-51.483 65.962-72.396 122.268-20.914 54.7-22.523 112.617 8.043 136.749 30.567 22.523 59.525-75.615 64.353-61.134 1.609 6.434 3.219 12.87 6.434 19.305 9.653 27.348 27.348 56.308 51.483 83.658 4.827 6.434-30.567 16.09-51.483 51.483-20.914 35.394 6.434 99.747 111.006 99.747 135.137 0 164.097-46.657 167.315-46.657h20.914c12.87 0 8.043 1.609 19.305 0 6.434 0 72.396 56.308 162.49 46.657 154.447-16.09 130.311-67.569 119.053-99.747-12.87-33.786-57.917-49.872-54.7-51.483 37.003-40.22 43.437-65.962 54.7-102.962 4.827-16.09 40.22 85.266 69.178 61.134 11.263-9.653 33.786-49.872 11.263-136.749-22.523-85.266-67.569-106.181-65.962-122.268 1.609-33.786 1.609-56.308-1.609-62.742-8.043-28.959-25.741-22.523-25.741-28.959 0-170.532-127.095-307.279-284.757-307.279S227.799 227.245 227.799 396.168c-1.609 12.87-14.478 3.219-24.132 28.959z"/></svg>