<svg class="icon" viewBox="0 0 1024 1024" xmlns="http://www.w3.org/2000/svg" width="500" height="500"><path d="M895.696 312.957c0 325.951-214.113 560.666-529.027 570.967-133.177 10.3-224.414-30.167-306.086-91.237 91.237 10.3 214.113-19.867 274.447-81.672-91.237 0-142.742-51.505-172.909-121.404h81.672c-81.672-30.903-143.478-91.973-143.478-193.511 19.867 10.3 40.468 19.866 81.672 19.866-71.37-40.468-111.839-172.909-61.07-254.58 91.237 101.537 203.076 193.51 387.758 203.075C457.17 161.385 722.787 58.376 834.626 191.552c51.505-10.3 81.672-30.167 121.404-51.504-10.3 51.504-40.468 81.671-81.672 101.538 40.468 0 71.371-10.301 101.538-30.167-9.565 40.468-50.033 81.671-80.2 101.538z"/></svg>