<svg class="icon" viewBox="0 0 1024 1024" xmlns="http://www.w3.org/2000/svg" width="500" height="500"><path d="M692.102 348.2c-53.7-.4-106.9 12.7-154.2 38.2-45.7 24.1-84.3 60.2-111.5 104.1-27.3 43.2-41.7 93.1-41.3 144.1.2 25.3 4.1 50.6 11.5 74.8h-33.5c-35.6-1.2-71.2-5.6-106.1-13.2l-20.6-3.7-126.1 65.2 34.5-107.9C48.502 580.2.402 497.7.002 402.3c-.2-55.3 16.9-109 48.7-154.2 33.5-48.3 79-87 132.2-111.9 57.2-27.6 120.1-41.5 183.6-40.9 56.8-.2 113.1 11.3 165.3 33.5 49.8 20.8 94.6 52.2 131.2 91.9 33.9 36.2 56.8 81 66.6 129.5-11.2-1-23.3-2-35.5-2zm-448.6-9.2c12.1.8 24.1-2.9 33.5-10.5 9-8.4 13.8-20.2 13.2-32.5.6-12.3-4.3-24.1-13.2-32.5-9.1-8.4-21.2-12.7-33.5-11.9-13.4-.2-26.5 4.1-37.2 11.9-10.1 7.2-16.2 18.9-16.2 31.2-1 13.3 5.2 26.2 16.2 33.9 11 7.1 24 10.8 37.2 10.4zm780.5 290.3c-.4 41.1-12.7 81.4-35.4 115.6-25.1 35.6-56.1 66.8-91.9 91.9l28 91.9-100.4-53.7h-5.4c-33.5 9.4-67.7 15.2-102.4 16.9-54.3.6-107.9-11.5-156.5-35.4-44.8-22-83.1-54.9-111.5-96-26.7-38.9-40.9-85.1-40.9-132.2-.2-47.1 14-93.1 40.9-131.8 28.2-41.1 66.8-74.2 111.5-96 48.7-23.9 102.4-36 156.5-35.4 52.2-.2 103.8 11.9 150.5 35.4 45.3 21.8 84.3 54.9 113.3 96 28.2 38.4 43.4 84.9 43.2 132.8h.5zm-525.2-379.2c-14-.6-27.6 3.7-38.9 11.9-11.1 7.2-17.5 19.5-16.9 32.5-.4 13 6 25.5 16.9 32.5 11.1 8 24.5 12.1 38.2 11.9 12.1 1 24.1-2.7 33.5-10.5 8.2-9 12.5-20.6 11.9-32.5 1.6-12.7-2.9-25.1-11.9-34.1s-21.6-13.2-34.1-11.9h1.4v.2zm117 334.6c11.9.8 23.6-3.3 32.5-11.1 7.4-6.4 11.7-15.6 11.9-25.3-.4-9.7-4.7-18.9-11.9-25.3-9-7.8-20.6-11.7-32.5-11.1-9.3.4-17.9 4.3-24.3 11.1-6.8 6.6-10.9 15.8-11.1 25.3.2 9.5 4.1 18.7 11.1 25.3 6.4 6.8 15.1 10.7 24.3 11.1zm199.3 0c11.9.8 23.6-3.3 32.5-11.1 7.4-6.4 11.7-15.6 11.9-25.3-.6-9.9-5.4-19.3-13.2-25.3-8.8-7.4-19.9-11.3-31.2-11.1-9.3.2-18.1 4.1-24.3 11.1-6.8 6.6-10.9 15.8-11.1 25.3.2 9.5 4.1 18.7 11.1 25.3 6.2 6.8 15 10.9 24.3 11.1zm0 0"/></svg>