<svg class="icon" viewBox="0 0 1024 1024" xmlns="http://www.w3.org/2000/svg" width="500" height="500"><path d="M671.75 136.41c-29.542 12.927-36.317 43.701-14.769 65.246 10.462 10.466 20.31 12.312 63.396 12.312 60.324 0 100.95 16.002 131.73 51.705 37.548 42.472 41.855 55.399 41.855 132.957 0 68.939 0 70.17 16.002 79.404 36.932 20.927 61.556-4.926 70.171-73.865 11.08-89.87-42.468-194.512-123.102-242.524-52.94-30.774-143.428-43.086-185.282-25.235zM368.907 250.9c-68.942 24.62-135.42 72.018-206.82 148.344C-7.188 578.984 3.89 750.104 190.399 841.199c193.895 94.792 454.885 63.4 597.074-72.015 106.486-100.952 93.563-227.754-27.7-270.84-21.548-7.387-28.316-12.927-25.24-19.7 11.079-27.08 14.772-58.473 8.618-76.939-19.084-58.477-88.638-72.018-192.048-36.932l-41.243 14.155 3.693-41.24c4.311-48.626-6.154-75.097-35.086-89.87-24.002-12.308-70.167-11.076-109.56 3.082zm171.12 238.214c91.714 25.241 147.73 80.636 147.73 146.496 0 73.25-65.25 139.114-171.124 174.2-56.627 18.466-161.884 22.16-213.59 8-97.87-27.695-153.268-81.861-153.268-151.422 0-38.164 16.62-71.4 52.937-105.253 33.853-32.007 59.706-47.401 109.565-64.017 75.096-25.238 155.733-28.317 227.75-8.004zM346.13 548.82c-62.167 28.934-95.406 73.25-95.406 128.645 0 50.48 22.16 84.947 70.786 110.8 37.546 20.313 106.489 18.466 148.347-3.075 53.551-28.317 88.637-80.637 88.637-131.731-.621-41.855-37.55-91.713-81.251-109.561-35.086-14.77-94.18-12.312-131.113 4.922zm44.937 115.718c4.307 4.311 7.386 14.773 7.386 24.006 0 30.782-51.705 56.017-72.636 35.086-11.694-11.694-8.615-40.625 4.926-54.166 13.54-13.54 48.626-16.616 60.324-4.926zm291.15-401.943c-28.317 28.317-9.233 62.17 35.7 62.17 38.776 0 56.01 19.698 56.01 64.017 0 27.7 2.467 35.7 13.547 43.087 33.24 23.391 60.324-2.461 60.324-57.245 0-67.093-48.015-117.57-116.34-122.495-30.778-2.46-38.161-.614-49.24 10.466z"/></svg>