<svg class="icon" viewBox="0 0 1024 1024" xmlns="http://www.w3.org/2000/svg" width="500" height="500"><path d="M67.68 966.592c17.056-48.096 29.472-94.656 48.096-139.648 9.312-23.264 7.744-41.888-7.744-63.616-57.408-86.88-79.136-183.072-71.36-287.04C52.192 263.744 205.792 88.416 409.024 44.96c259.104-55.84 512 103.936 569.408 363.04 57.408 260.64-108.608 507.36-352.192 566.304-128.768 31.04-249.792 10.848-363.04-57.408-10.848-6.208-20.16-6.208-31.04-3.104-49.632 17.056-99.296 32.576-148.96 48.096-4.64 1.568-7.744 1.568-15.52 4.64zm153.6-594.24c1.536 15.52 3.104 31.04 7.744 46.56 9.312 43.456 34.144 80.672 55.84 117.92C364 664.064 472.608 750.944 616.896 794.4c52.736 15.52 99.296 7.744 145.856-21.728 37.248-23.264 48.096-58.944 49.664-99.296 0-6.208-4.64-17.056-9.312-20.16-40.352-21.728-82.24-43.456-122.56-65.152-12.416-6.208-23.264-3.104-32.576 7.744-15.52 17.056-31.04 35.68-44.992 52.736-7.744 10.848-18.624 10.848-29.472 6.208-85.344-37.248-148.96-97.76-192.384-178.432-6.208-12.416-4.64-21.728 4.64-31.04 12.416-13.952 24.832-27.936 35.68-43.456 4.64-7.744 7.744-21.728 4.64-29.472-13.952-41.888-31.04-83.776-46.56-124.128a26.784 26.784 0 00-18.624-15.52c-10.848-3.104-23.264-3.104-34.144-3.104-17.056-1.536-32.576 4.64-44.992 15.52-38.784 32.576-58.944 74.464-60.512 127.232z"/></svg>