<svg class="icon" viewBox="0 0 1024 1024" xmlns="http://www.w3.org/2000/svg" width="500" height="500"><path d="M810.837 209.323A419.67 419.67 0 00511.83 85.333C278.613 85.333 88.96 275.03 88.96 508.16c0 74.496 19.413 147.285 56.363 211.456l-40.448 147.755a42.667 42.667 0 0051.968 52.48l152.661-40.022a421.547 421.547 0 00202.112 51.414h.213c232.96 0 426.838-189.739 426.838-422.827 0-112.981-48-219.093-127.83-299.093zM511.872 849.749a337.493 337.493 0 01-172.928-47.616l-12.33-7.381-106.966 28.16a12.8 12.8 0 01-15.616-15.701l28.416-104.534-8.107-12.928A341.333 341.333 0 01172.46 508.16c0-188.075 152.32-341.163 339.626-341.163 90.667 0 175.83 35.499 239.872 100.054 64 64.512 103.382 150.144 103.168 241.28 0 188.245-156.16 341.333-343.253 341.333zm192.683-253.013c-10.454-5.29-62.464-30.848-72.192-34.261-9.686-3.627-16.726-5.334-23.808 5.333-7.04 10.667-27.222 34.304-33.494 41.515-6.101 7.04-12.373 8.021-22.869 2.688-62.08-31.062-102.827-55.467-143.787-125.739-10.88-18.645 10.838-17.323 31.019-57.685 3.413-7.083 1.707-13.142-.939-18.475-2.688-5.333-23.808-57.344-32.597-78.507-8.533-20.565-17.323-17.706-23.808-18.09-6.101-.384-13.141-.384-20.181-.384a39.125 39.125 0 00-28.16 13.141c-9.728 10.667-36.992 36.224-36.992 88.192 0 52.01 37.93 102.315 43.093 109.355 5.29 7.04 74.453 113.706 180.523 159.573 67.072 29.013 93.354 31.445 126.89 26.496 20.352-3.03 62.464-25.515 71.254-50.261 8.746-24.747 8.746-45.91 6.058-50.304-2.474-4.736-9.514-7.424-20.01-12.544z"/></svg>